<?xml version="1.0" encoding="UTF-8"?>
<svg id="KMKC_Logo" xmlns="http://www.w3.org/2000/svg" version="1.1" viewBox="0 0 1361 1481.9">
  <!-- Generator: Adobe Illustrator 29.5.1, SVG Export Plug-In . SVG Version: 2.1.0 Build 141)  -->
  <defs>
    <style>
      .st0 {
        fill: #353795;
      }

      .st1 {
        fill: #ed1c24;
      }
    </style>
  </defs>
  <path class="st0" d="M1217.4,160.5v-16.9h-1.7c-31.6,7.5-63.8,14-96.4,19.5-2.4-6.5-4.8-13-7.3-19.5h-18c2.9,7.4,5.7,14.8,8.4,22.3-83.7,13.1-170.6,19.7-260.5,19.7s-3,0-4.5,0V19.6c.5,0,1,0,1.5,0,2.5,0,5,0,7.5,0V2.6c-2.5,0-5,0-7.5,0s-1,0-1.5,0V0h-17v2.4c-17.3-.3-34.2-1.1-50.9-2.4h-115.6c52.5,11.9,107.9,18.3,166.5,19.4v166.1c-93.6-.9-180.7-7.9-264.2-21.6,21.1-57.3,47.5-112,79.1-163.9h-19.8c-30.1,50.7-55.5,104.6-76.1,161-48.1-8.4-95-19.1-141.4-32.2,28.3-45.9,60.6-89.1,96.4-128.8h-21.5c-19.8,22.7-38.6,46.7-56.3,71.7-12.1,17.2-23.6,34.7-34.5,52.5-55.4-16.3-110.1-35.9-165.1-59.2,18.8-22.8,38.9-44.5,60.2-65h-24.7C180.1,73.3,123,158.2,82.8,252.5c-42.7,100.1-64.3,206.4-64.3,315.9s21.6,215.8,64.3,315.9c41.2,96.6,100.1,183.4,175.2,258,75.1,74.5,162.5,133.1,259.9,174,94.2,39.6,193.9,60.9,296.7,63.6v.2h8.8c0,0,.1,0,.2,0,3.7,0,7.4,0,11.1.1h1.4s7.4,0,7.4,0v-.4c102.8-2.7,202.5-24,296.7-63.6,26.5-11.1,52.3-23.6,77.3-37.3v-19.9c-103,58.3-220.2,94.7-345.1,102.5,69-28.6,133.9-66,193.3-111.5,28.7-22,56-45.7,81.6-71.1,24.3,11.2,47.7,23.8,70.2,37.7v-19.9c-18.6-11.1-37.7-21.4-57.4-30.7,20.2-20.8,39.3-42.6,57.4-65.3v-26.1c-22.5,29.6-46.9,57.8-73.1,84.2-20.9-9.2-42.4-17.5-64.5-24.6-16.1-5.3-32.6-10-49.3-14.1,4.1-7.7,8.2-15.4,12.2-23.2,20.4-39.7,42.2-87.5,62.4-142.3,37.6,6.7,75,14.8,112.2,24.4v-17.5c-35.3-9-70.7-16.7-106.4-23.1,19-53.9,36.3-114.2,48.9-179.7,19.3,2.9,38.4,6,57.5,9.5v-17.4c-18-3.2-36.1-6.2-54.3-8.9,9.4-52.7,15.7-108.7,17.7-167.5h36.7v-17h-36.2c1.2-62.5-2.3-123.5-10.4-182.6,15.7-2.3,31.2-4.9,46.6-7.6v-17.1c-16.2,2.9-32.5,5.6-49,8.1-7-46.4-16.9-91.5-29.7-135.3-4.3-14.7-8.9-29.2-13.8-43.6,19.8-3.4,39.5-7.1,58.9-11.2,11.2-2.4,22.4-4.9,33.5-7.5ZM820.5,202.5v177.8c-108.9-1-213.2-8.6-313.8-23,9.5-61.5,24.1-120.7,43.8-177.4,85.2,14.2,174.2,21.6,270,22.6ZM820.5,557.3h-326.7c-1.2-63.1,2.3-124.2,10.4-183.2,101.4,14.5,206.5,22.2,316.3,23.1v160ZM820.5,720.2c-104.6,1.2-207.7,9.2-307.9,23.9-9.7-53.3-16.3-110.1-18.3-169.8h326.2v145.9ZM820.5,915c-88,1.2-174.1,8.6-256.1,21.8-18.8-52.7-35.9-111.6-48.6-175.8,99.5-14.6,201.2-22.6,304.7-23.8v177.8ZM820.5,1098.2c-57.4,1.7-115.9,9.8-172.7,23.9-5.9-10.6-11.7-21.5-17.5-32.8-19.6-38.1-40.5-83.9-60-136.3,80.2-12.7,164.2-19.8,250.2-21v166.3ZM476.8,557.3h-207c1.1-75.2,13.3-149.9,35-221.7,59.7,14.7,120.6,26.7,182.8,36.1-8.4,60.1-12,122.1-10.8,185.6ZM477.2,574.3c2,60.6,8.6,118.2,18.5,172.3-24,3.7-47.9,7.8-71.5,12.3-42.1,8-84,17.3-125.5,27.8-18.5-68.3-28.5-139.5-29-212.4h207.6ZM499,763.5c12.6,64.2,29.6,123.2,48.4,176.1-59,10.1-115.8,23.2-169.7,39.2-31.2-55.3-56.1-114.2-74.2-175.6,64.1-16.2,129.4-29.4,195.6-39.7ZM553.2,955.8c20.1,54.4,41.8,101.8,62,141.2,5.1,9.9,10.3,19.7,15.6,29.4-13.2,3.6-26.3,7.5-39.2,11.7-25,8.1-48.9,17.3-71.5,27.3-51.9-51.3-96.9-109-133.9-171.5,53-15.6,108.9-28.3,166.9-38.1ZM492.7,169.2c13.6,2.8,27.3,5.4,41.1,7.9-5.2,15.1-10.1,30.4-14.6,45.9-12.4,42.7-22.1,86.7-29.1,131.9-61.4-9.3-121.4-21.1-180.2-35.5,19.8-61.2,46.6-120.2,79.2-175.5,34.3,9.7,68.7,18.2,103.7,25.4ZM206,78.8c55.9,23.9,111.3,43.9,167.2,60.5-32.9,56.4-59.5,115.6-79.2,176.2-65.9-16.7-130.4-36.7-193.7-60,27.6-63.5,63.2-122.8,105.7-176.6ZM93.6,271.1c63.8,23.5,128.8,43.7,195.2,60.6-22.6,74.3-35,150.5-36.1,225.7H35.5c1.4-101,21.9-197.6,58.1-286.2ZM252.7,574.3c.5,72.8,10.7,145.4,30.2,216.5-66,17.3-131.1,37.7-194.7,61.2-33.4-86.4-52-180-52.7-277.7h217.2ZM287.6,807.2c1.8,6.2,3.7,12.4,5.7,18.5,17.6,54.8,40.6,107.6,68.7,157.8-58.5,18.1-113.4,39.7-163.8,64.5-42.1-55-77.1-115.5-103.7-180.2,63.1-23.3,127.5-43.5,193.1-60.6ZM208.9,1061.7c49.8-24.2,104-45.3,161.7-63,12.1,20.7,25,40.8,38.8,60.5,28.5,40.6,60.2,78.6,94.9,113.5-39,18.5-73.6,39.7-102.7,62.9-73.4-47.3-138.6-106.1-192.8-173.9ZM417,1245.2c28.9-22.4,62.8-42.6,100.1-59.9,23.8,23,48.9,44.6,75.3,64.8,59.4,45.5,124.2,82.8,193.3,111.5-134.5-8.4-260.1-49.9-368.6-116.3ZM533.2,1178c33.3-14.4,68.9-26.6,106-36.4,27.8,49,58.2,94.8,89.4,134.4,21.1,26.7,42.3,50.3,62.3,69.4-97.1-40.4-184-97.5-257.7-167.3ZM656.3,1137.3c53.2-12.8,108.9-20.4,164.1-22.1v233.7c-43.7-36.8-104.8-107.5-164.1-211.6ZM837.5,1348.9v-233.9c1.8,0,3.5,0,5.3,0,55.9,0,110.1,5.7,162,16.8-60.4,107.1-122.8,179.7-167.3,217.1ZM1131.1,1171.8c-75.1,72.6-164.2,131.9-264.2,173.5,20-19.1,41.2-42.6,62.3-69.4,32.4-41.1,64.1-89,92.7-140.2,37.8,9.1,74.3,21.2,109.2,36.1ZM1027.6,1089.2c-4.7,9.2-9.5,18.2-14.2,26.9-54.5-12.1-111.7-18.2-170.6-18.2s-3.5,0-5.3,0v-166.1c2.8,0,5.7,0,8.5,0,81.4,0,162.2,6.7,242.1,19.9-19.6,52.9-40.8,99-60.5,137.5ZM1094,935.4c-81.9-13.7-164.7-20.6-248-20.6s-5.7,0-8.5,0v-177.8c3.6,0,7.2,0,10.8,0,104,0,201.2,6.3,294.8,19.2-12.7,65.5-30,125.5-49.1,179.2ZM1146.2,739.4c-93.8-13-192.1-19.4-297.9-19.4-3.6,0-7.2,0-10.8,0v-145.7h326.2c-1.9,57.9-8.2,113.1-17.5,165.1ZM1164.1,557.3h-326.7v-159.9c2.3,0,4.5,0,6.8,0,111.2,0,213.3-6.7,309.9-20.3,7.8,58.1,11.2,118.2,10,180.2ZM1151.8,360.5c-96.1,13.5-197,19.8-307.5,19.9-2.3,0-4.5,0-6.8,0v-177.8c1.5,0,3,0,4.5,0,91.2,0,180.4-6.9,266.2-20.6,19.7,57,34.2,116.6,43.6,178.5Z"/>
  <polygon class="st1" points="846.5 0 846.5 143.6 1215.7 143.6 1217.4 1462.8 1361 1462.8 1361 0 846.5 0"/>
</svg>